<svg width="23" height="21" viewBox="0 0 23 21" fill="none" xmlns="http://www.w3.org/2000/svg">
<path d="M5.99951 1C3.05436 1 0.666016 3.36381 0.666016 6.28016C0.666016 8.63437 1.59938 14.2217 10.7869 19.8699C10.9514 19.97 11.1404 20.023 11.333 20.023C11.5257 20.023 11.7146 19.97 11.8792 19.8699C21.0666 14.2217 22 8.63437 22 6.28016C22 3.36381 19.6117 1 16.6665 1C13.7213 1 11.333 4.2001 11.333 4.2001C11.333 4.2001 8.94467 1 5.99951 1Z" stroke="white" stroke-linecap="round" stroke-linejoin="round"/>
<path d="M14.2477 10.9538C14.443 10.7586 14.443 10.442 14.2477 10.2467L11.0657 7.06476C10.8705 6.8695 10.5539 6.8695 10.3586 7.06476C10.1633 7.26002 10.1633 7.5766 10.3586 7.77187L13.187 10.6003L10.3586 13.4287C10.1633 13.624 10.1633 13.9406 10.3586 14.1358C10.5539 14.3311 10.8704 14.3311 11.0657 14.1358L14.2477 10.9538ZM1.09375 11.1003L13.8941 11.1003L13.8941 10.1003L1.09375 10.1003L1.09375 11.1003Z" fill="white"/>
</svg>
