<svg width="28" height="27" viewBox="0 0 28 27" fill="none" xmlns="http://www.w3.org/2000/svg">
<path d="M25.1651 9.57656C25.083 9.48395 24.981 9.40959 24.8662 9.35861C24.7514 9.30764 24.6265 9.28124 24.5001 9.28125H19.2501V5.90625C19.2501 5.23492 18.9736 4.59109 18.4813 4.11639C17.989 3.64168 17.3213 3.375 16.6251 3.375H11.3751C10.6789 3.375 10.0113 3.64168 9.51899 4.11639C9.0267 4.59109 8.75014 5.23492 8.75014 5.90625V9.28125H3.50014C3.37331 9.27987 3.24768 9.30509 3.13196 9.35517C3.01623 9.40525 2.91319 9.479 2.82995 9.5713C2.74672 9.66359 2.6853 9.77224 2.64993 9.8897C2.61457 10.0072 2.60611 10.1306 2.62514 10.2516L4.27014 20.5031C4.33343 20.9055 4.54539 21.2723 4.86698 21.5359C5.18856 21.7995 5.59811 21.9421 6.02014 21.9375H21.9976C22.4197 21.9421 22.8292 21.7995 23.1508 21.5359C23.4724 21.2723 23.6844 20.9055 23.7476 20.5031L25.3751 10.2516C25.3927 10.1311 25.383 10.0084 25.3467 9.89191C25.3105 9.7754 25.2485 9.66783 25.1651 9.57656ZM10.5001 5.90625C10.5001 5.68247 10.5923 5.46786 10.7564 5.30963C10.9205 5.1514 11.1431 5.0625 11.3751 5.0625H16.6251C16.8572 5.0625 17.0798 5.1514 17.2439 5.30963C17.408 5.46786 17.5001 5.68247 17.5001 5.90625V9.28125H10.5001V5.90625ZM21.9976 20.25H6.00264L4.52389 10.9688H23.4764L21.9976 20.25Z" fill="white"/>
</svg>
