<svg width="16" height="19" viewBox="0 0 16 19" fill="none" xmlns="http://www.w3.org/2000/svg">
<path d="M7.99935 0.75C3.11352 4.73125 0.666016 8.17 0.666016 11.075C0.666016 15.4325 4.14935 18.25 7.99935 18.25C11.8493 18.25 15.3327 15.4325 15.3327 11.075C15.3327 8.17 12.8852 4.73125 7.99935 0.75ZM4.17685 11.25C4.51602 11.25 4.79102 11.4775 4.85518 11.7925C5.23102 13.735 6.94518 14.4 8.19185 14.3037C8.58602 14.2862 8.91602 14.5837 8.91602 14.96C8.91602 15.31 8.62268 15.5987 8.25602 15.6162C6.30352 15.73 4.02102 14.6625 3.49852 12.0112C3.48259 11.9174 3.48819 11.8214 3.51495 11.7299C3.5417 11.6384 3.58897 11.5535 3.65347 11.4811C3.71798 11.4087 3.79819 11.3505 3.88856 11.3106C3.97892 11.2707 4.07729 11.25 4.17685 11.25Z" fill="#EC2A58"/>
</svg>
