<svg width="19" height="19" viewBox="0 0 19 19" fill="none" xmlns="http://www.w3.org/2000/svg">
<path d="M7.125 0.890625C7.125 0.398926 7.52207 0 8.01562 0H10.9844C11.4779 0 11.875 0.398926 11.875 0.890625C11.875 1.38232 11.4779 1.78125 10.9844 1.78125H10.3906V3.02887C11.5299 3.18398 12.5727 3.63227 13.4447 4.29355L14.3279 3.41221L13.9086 2.9925C13.5598 2.64441 13.5598 2.08072 13.9086 1.73301C14.2574 1.38492 14.8215 1.38492 15.1666 1.73301L17.267 3.8334C17.6158 4.17852 17.6158 4.74258 17.267 5.09141C16.9182 5.44023 16.3541 5.44023 16.009 5.09141L15.5859 4.67207L14.7064 5.55527C15.367 6.42734 15.816 7.47012 15.9719 8.60938H17.2188V8.01562C17.2188 7.52207 17.6158 7.125 18.1094 7.125C18.6029 7.125 19 7.52207 19 8.01562V10.9844C19 11.4779 18.6029 11.875 18.1094 11.875C17.6158 11.875 17.2188 11.4779 17.2188 10.9844V10.3906H15.9719C15.816 11.5299 15.367 12.5727 14.7064 13.4447L15.5859 14.3279L16.009 13.9086C16.3541 13.5598 16.9182 13.5598 17.267 13.9086C17.6158 14.2574 17.6158 14.8215 17.267 15.1666L15.1666 17.267C14.8215 17.6158 14.2574 17.6158 13.9086 17.267C13.5598 16.9182 13.5598 16.3541 13.9086 16.009L14.3279 15.5859L13.4447 14.7064C12.5727 15.367 11.5299 15.816 10.3906 15.9719V17.2188H10.9844C11.4779 17.2188 11.875 17.6158 11.875 18.1094C11.875 18.6029 11.4779 19 10.9844 19H8.01562C7.52207 19 7.125 18.6029 7.125 18.1094C7.125 17.6158 7.52207 17.2188 8.01562 17.2188H8.60938V15.9719C7.47012 15.816 6.42734 15.367 5.55527 14.7064L4.67207 15.5896L5.09141 16.009C5.44023 16.3541 5.44023 16.9182 5.09141 17.267C4.74258 17.6158 4.17852 17.6158 3.8334 17.267L1.73301 15.1666C1.38492 14.8215 1.38492 14.2574 1.73301 13.9086C2.08072 13.5598 2.64479 13.5598 2.9925 13.9086L3.41221 14.3279L4.29355 13.4447C3.63227 12.5727 3.18398 11.5299 3.02887 10.3906H1.78125V10.9844C1.78125 11.4779 1.38232 11.875 0.890625 11.875C0.398926 11.875 0 11.4779 0 10.9844V8.01562C0 7.52207 0.398926 7.125 0.890625 7.125C1.38232 7.125 1.78125 7.52207 1.78125 8.01562V8.60938H3.02887C3.18398 7.47012 3.63227 6.42734 4.29355 5.55527L3.41221 4.67207L2.9925 5.09141C2.64441 5.44023 2.08072 5.44023 1.73301 5.09141C1.38492 4.74258 1.38492 4.17852 1.73301 3.8334L3.8334 1.73301C4.17852 1.38529 4.74258 1.38529 5.09141 1.73301C5.44023 2.08072 5.44023 2.64479 5.09141 2.9925L4.67207 3.41221L5.55527 4.29355C6.42734 3.63227 7.47012 3.18398 8.60938 3.02887V1.78125H8.01562C7.52207 1.78125 7.125 1.3827 7.125 0.890625ZM7.125 6.53125C6.1416 6.53125 5.34375 7.3291 5.34375 8.3125C5.34375 9.2959 6.1416 10.0938 7.125 10.0938C8.1084 10.0938 8.90625 9.2959 8.90625 8.3125C8.90625 7.3291 8.1084 6.53125 7.125 6.53125ZM11.2812 12.1719C11.7748 12.1719 12.1719 11.7748 12.1719 11.2812C12.1719 10.7877 11.7748 10.3906 11.2812 10.3906C10.7877 10.3906 10.3906 10.7877 10.3906 11.2812C10.3906 11.7748 10.7877 12.1719 11.2812 12.1719Z" fill="#4EE45D"/>
</svg>
