<svg width="14" height="14" viewBox="0 0 14 14" fill="none" xmlns="http://www.w3.org/2000/svg">
<path fill-rule="evenodd" clip-rule="evenodd" d="M8.50032 0.999939C8.36771 0.999939 8.24053 0.947261 8.14676 0.853492C8.053 0.759724 8.00032 0.632547 8.00032 0.499939C8.00032 0.367331 8.053 0.240154 8.14676 0.146386C8.24053 0.0526174 8.36771 -6.10352e-05 8.50032 -6.10352e-05H13.5003C13.6329 -6.10352e-05 13.7601 0.0526174 13.8539 0.146386C13.9476 0.240154 14.0003 0.367331 14.0003 0.499939V5.49994C14.0003 5.63255 13.9476 5.75972 13.8539 5.85349C13.7601 5.94726 13.6329 5.99994 13.5003 5.99994C13.3677 5.99994 13.2405 5.94726 13.1468 5.85349C13.053 5.75972 13.0003 5.63255 13.0003 5.49994V1.70694L8.87132 5.83594C9.68313 6.82913 10.0822 8.09634 9.9859 9.37547C9.88964 10.6546 9.30544 11.8478 8.35413 12.7083C7.40282 13.5688 6.15718 14.0308 4.87482 13.9987C3.59247 13.9666 2.37151 13.4428 1.46447 12.5358C0.557423 11.6287 0.0336832 10.4078 0.00156882 9.12543C-0.0305455 7.84308 0.431423 6.59744 1.29193 5.64613C2.15243 4.69482 3.34565 4.11062 4.62478 4.01435C5.90392 3.91809 7.17113 4.31713 8.16432 5.12894L12.2933 0.999939H8.50032ZM5.00032 4.99994C3.93945 4.99994 2.92204 5.42137 2.17189 6.17151C1.42175 6.92166 1.00032 7.93907 1.00032 8.99994C1.00032 10.0608 1.42175 11.0782 2.17189 11.8284C2.92204 12.5785 3.93945 12.9999 5.00032 12.9999C6.06118 12.9999 7.0786 12.5785 7.82875 11.8284C8.57889 11.0782 9.00032 10.0608 9.00032 8.99994C9.00032 7.93907 8.57889 6.92166 7.82875 6.17151C7.0786 5.42137 6.06118 4.99994 5.00032 4.99994Z" fill="#78CEFF"/>
</svg>
