<svg width="18" height="18" viewBox="0 0 18 18" fill="none" xmlns="http://www.w3.org/2000/svg">
<circle cx="9" cy="9" r="8.5" stroke="#969696"/>
<path d="M8.66624 11.1943L8.49824 5.31429H9.50624L9.32624 11.1943H8.66624ZM9.00224 13.7743C8.82624 13.7743 8.67424 13.7143 8.54624 13.5943C8.42624 13.4663 8.36624 13.3183 8.36624 13.1503C8.36624 12.9743 8.42624 12.8303 8.54624 12.7183C8.67424 12.5983 8.82624 12.5383 9.00224 12.5383C9.18624 12.5383 9.33424 12.5983 9.44624 12.7183C9.56624 12.8303 9.62624 12.9743 9.62624 13.1503C9.62624 13.3183 9.56624 13.4663 9.44624 13.5943C9.33424 13.7143 9.18624 13.7743 9.00224 13.7743Z" fill="#969696"/>
</svg>
